<svg id="Layer_1" data-name="Layer 1" xmlns="http://www.w3.org/2000/svg" viewBox="0 0 257.33 236.36">
  <defs>
    <style>
      .cls-1 {
        fill: #404b5a;
      }

      .cls-2 {
        fill: #fff;
      }

      .cls-3 {
        fill: #ef4a25;
      }

      .cls-4 {
        fill: #77787b;
      }
    </style>
  </defs>
  <title>Citizen DJ logo inverted</title>
  <path class="cls-1" d="M42.7,128.52l.09-.28-.09.28" transform="translate(0 -20.49)"/>
  <g>
    <path class="cls-2" d="M70.56,114.58V103.24h6.49v11.5c0,3.5-1.94,6.64-6.59,6.64h-1c-5,0-7-2.72-7-7.27V88.81c.05-4.08,1.93-7.06,7-7.06h1.1c4.6,0,6.59,2.51,6.59,6.33v10.3H70.56V88.29c0-.63-.1-1-.67-1s-.68.32-.68,1v26.29c0,.68.15,1.1.68,1.1S70.56,115.21,70.56,114.58Z" transform="translate(0 -20.49)"/>
    <path class="cls-2" d="M85.83,121H79.19V82.12h6.64Z" transform="translate(0 -20.49)"/>
    <path class="cls-2" d="M91,88.08H88v-6h12.49v6h-3V121H91Z" transform="translate(0 -20.49)"/>
    <path class="cls-2" d="M109.25,121h-6.64V82.12h6.64Z" transform="translate(0 -20.49)"/>
    <path class="cls-2" d="M123.73,82.12v5.44l-5.28,27.49H124v6H111.34v-5.43L116.51,88h-5V82.12Z" transform="translate(0 -20.49)"/>
    <path class="cls-2" d="M137.26,82.12v6h-4.7v9.46h4v6.17h-4V115h4.86V121H126.08V82.12Z" transform="translate(0 -20.49)"/>
    <path class="cls-2" d="M146.25,82.12l2.57,21.07-.06-21.07h5.49V121h-6.11L145.05,97.7l0,23.31h-5.54V82.12Z" transform="translate(0 -20.49)"/>
    <path class="cls-2" d="M161.88,82.12h9.46c2.88,0,5.13,1.46,5.13,5.59v27.4c0,4.07-2.15,5.9-5,5.9h-9.57Zm6.48,33.4H169c.63,0,.79-.41.79-1.3V88.65c0-.78-.16-1.2-.79-1.2h-.63Z" transform="translate(0 -20.49)"/>
    <path class="cls-2" d="M184.57,104.23v10.82c0,.47.21.68.57.68h.06c.36,0,.52-.21.52-.68V82.12h6.74v33.3c0,3.4-1.88,6-6.38,6h-1.77c-4.24,0-5.75-2.56-5.75-5.75v-11.4Z" transform="translate(0 -20.49)"/>
  </g>
  <path class="cls-3" d="M213.13,100V72.73a4.33,4.33,0,0,1,4.47-4.47h6.94a4.42,4.42,0,0,1,4.66,4.67v54a4.45,4.45,0,0,1-3.19,4.54,4.53,4.53,0,0,1-1.21.17c-2.39,0-4.77,0-7.16,0a4.36,4.36,0,0,1-4.51-4.5V100" transform="translate(0 -20.49)"/>
  <path class="cls-3" d="M28.64,130.84a3,3,0,0,1-.52-.42c-1.37-1.33-1.33-3-1.33-4.78,0-2.08,0-4.17,0-6.25v-5.32q0-20.91,0-41.82a4.34,4.34,0,0,1,2-3.37,3.87,3.87,0,0,1,.55-.25l.27-.12.29-.1.13,0,.54-.13H39l.95.2a4.29,4.29,0,0,1,2.82,3c0,.14.07.28.1.42a2.56,2.56,0,0,0,0,.27c0,.48,0,1,0,1.44q0,20.07,0,40.14,0,6.25,0,12.51a5.55,5.55,0,0,1-.6,3.31,4.79,4.79,0,0,1-1.82,1.7,6.08,6.08,0,0,1-2.6.45q-3-.08-6,0a5.54,5.54,0,0,1-3.21-.8" transform="translate(0 -20.49)"/>
  <path class="cls-3" d="M22.57,113c0,2.35,0,4.7,0,7.06,0,1.17,0,2.35,0,3.53,0,.59,0,1.22,0,1.82s-.42.48-1.06.49l-.42-.05c-5.19-.64-9.83-5.45-9.78-10.79.08-7.63,0-15.26,0-22.89q0-3.31,0-6.63a11.86,11.86,0,0,1,2.56-7.39,11.11,11.11,0,0,1,7.13-4l.78-.14h.42c.46,0,.37.36.37.64l0,4.48c0,5.63,0,11.25,0,16.87v17" transform="translate(0 -20.49)"/>
  <path class="cls-3" d="M233.51,125.83V74c.93.13,1.82.19,2.67.39a11.14,11.14,0,0,1,8.5,10.83q0,14.85,0,29.7a11.15,11.15,0,0,1-10.61,11,4,4,0,0,1-.55,0" transform="translate(0 -20.49)"/>
  <path class="cls-4" d="M239.88,224.46c-3.47-2.69-7.58-5.17-12-5.7-5.05-.6-10.14-.29-15.2-.2-15,.27-30,.51-45,.36-.55,0-.76-.17-.77-.74,0-3.21-.14-6.42-.14-9.62,0-8.87,0-17.74,0-26.61,0-.9-.06-1.79-.09-2.68,0-1.51,0-3-.16-4.52s.14-2.14,1.46-2.87c.3-.16.59-.34.89-.52A73.54,73.54,0,0,0,180,163.7a87.64,87.64,0,0,0,18.16-21.63,80.64,80.64,0,0,0,9-58.19,81.57,81.57,0,0,0-30.5-47.1c-15.07-11.11-34.73-17.79-53.54-16C105.59,22.42,89.25,28.49,75.78,40A80.79,80.79,0,0,0,50.64,78.88a81.45,81.45,0,0,0,33.84,91c1,.67,2.11,1.18,3.15,1.81a1,1,0,0,1,.44.68c.17,3.67.23,7.35.32,11,.28,11.32.17,22.65.32,34l-.23.37c-5.68,0-11.39.22-17.08.29l-17.19.23c-3.92.06-7.88,0-11.82.12a90,90,0,0,0-12.93.25c-4.43.53-8.54,3-12,5.7C8.27,231.48-.71,243.58.05,255.75c0,.36-.2.93.36.92.27,0,.62,0,1,0v0H4.56c.45-.09.53-.39.51-.81a25.84,25.84,0,0,1,.15-4.9,41.74,41.74,0,0,1,2.63-8.11,35,35,0,0,1,5.71-8.7c1-1.21,2.12-2.36,3.26-3.47a29.6,29.6,0,0,1,15.24-7.15c0-.24,0-.49,0-.73,1.86-.14,3.74-.13,5.56-.09v.43c2.3-.1,4.6-.22,6.9-.31,11.26-.41,22.52-.3,33.76-.54.51,0,.68.23.81.64,3.38,10.85,6.62,21.73,9.63,32.69.08.3.2.61.3.91h5.62c-.13-4.09-.29-8.19-.39-12.29-.12-5.29-.15-10.58-.3-15.87-.23-7.56-.55-15.12-.78-22.67-.15-4.58-.24-9.16-.3-13.74-.07-5.52-.1-11.05-.13-16.57a8.43,8.43,0,0,1,.11-.9,5.46,5.46,0,0,1,.61.2,66.79,66.79,0,0,0,7.74,3.16c19.91,6.79,40.95,5.56,60.24-2.72.78-.33.88-.28.88.62q0,17.92.2,35.91c0,3.74.33,44.86.26,44.86l5.08,0c.63-2.46,1.21-4.94,1.9-7.38,2.33-8.37,4.91-16.65,7.6-24.91a.71.71,0,0,1,.76-.61q20.51-.45,41-.83c4.71-.1,9.84-.17,14,2.32a42.76,42.76,0,0,1,10.59,9.11,35,35,0,0,1,5.71,8.7,38.24,38.24,0,0,1,3.27,12.66c.11,1.65,2.92,1.05,4.17,1.09.56,0,.34-.56.36-.92C258,243.68,249.06,231.58,239.88,224.46ZM119.16,177.65c-2.15-.24-4.28-.58-6.4-1a76,76,0,0,1-46.82-30.13A76.92,76.92,0,0,1,77.54,44.31a76.34,76.34,0,0,1,51.57-19.38A80.16,80.16,0,0,1,155,29.64a75.59,75.59,0,0,1,39.93,34.28,76.9,76.9,0,0,1,6.79,58.74,77.9,77.9,0,0,1-31.88,43.43A77.91,77.91,0,0,1,119.16,177.65Z" transform="translate(0 -20.49)"/>
  <path class="cls-3" d="M32.07,256.74q0-10.52,0-21V149.21c0-4.6,0-9.21,0-13.81a.18.18,0,0,0,0-.1l5.48,0c0,2.41,0,4.81,0,7.22V255.92c0,.27,0,.55,0,.82Z" transform="translate(0 -20.49)"/>
</svg>
