<svg xmlns="http://www.w3.org/2000/svg" data-name="Layer 1" viewBox="0 0 100 125" x="0px" y="0px"><title>50 all</title><path d="M53,47.46V18H47V47.46a10,10,0,0,0,0,19.08V82h6V66.54a10,10,0,0,0,0-19.08ZM50,61a4,4,0,1,1,4-4A4,4,0,0,1,50,61Z"/><path d="M26,32.46V18H20V32.46a10,10,0,0,0,0,19.08V82h6V51.54a10,10,0,0,0,0-19.08ZM23,46a4,4,0,1,1,4-4A4,4,0,0,1,23,46Z"/><path d="M80,32.46V18H74V32.46a10,10,0,0,0,0,19.08V82h6V51.54a10,10,0,0,0,0-19.08ZM77,46a4,4,0,1,1,4-4A4,4,0,0,1,77,46Z"/><text x="0" y="115" fill="#000000" font-size="5px" font-weight="bold" font-family="'Helvetica Neue', Helvetica, Arial-Unicode, Arial, Sans-serif">Created by Daily icons</text><text x="0" y="120" fill="#000000" font-size="5px" font-weight="bold" font-family="'Helvetica Neue', Helvetica, Arial-Unicode, Arial, Sans-serif">from the Noun Project</text></svg>