<svg xmlns="http://www.w3.org/2000/svg" version="1.1" x="0px" y="0px" viewBox="0 0 100 125"><path d="M 49.9973,5 C 25.14553,5 5,25.1455 5,49.99732 5,74.84912 25.14553,95.00002 49.9973,95.00002 74.84906,95.00002 95,74.84912 95,49.99732 95,25.1455 74.84906,5 49.9973,5 z m 0,16.5908 c 3.87387,0 7.01916,3.1398 7.01916,7.0137 0,3.8739 -3.14529,7.0138 -7.01916,7.0138 -3.87388,0 -7.01376,-3.1399 -7.01376,-7.0138 0,-3.8739 3.13988,-7.0137 7.01376,-7.0137 z m 0,18.7051 c 1.71433,0 3.41994,0.6822 4.62356,1.8495 1.20362,1.1672 1.88989,2.8061 1.86565,4.4451 l 0,25.52422 c 0.0245,1.6546 -0.67386,3.308 -1.8981,4.4776 -1.22422,1.1696 -2.95805,1.8418 -4.68845,1.8169 -1.69797,-0.024 -3.37014,-0.7171 -4.55327,-1.8818 -1.18313,-1.1647 -1.86269,-2.7891 -1.83861,-4.4127 l 0,-25.52422 c -0.0242,-1.639 0.66744,-3.2779 1.87106,-4.4451 1.20362,-1.1673 2.90382,-1.8495 4.61816,-1.8495 z" style="" fill="#000000" stroke="none"/><text x="0" y="115" fill="#000000" font-size="5px" font-weight="bold" font-family="'Helvetica Neue', Helvetica, Arial-Unicode, Arial, Sans-serif">Created by Dan Craggs</text><text x="0" y="120" fill="#000000" font-size="5px" font-weight="bold" font-family="'Helvetica Neue', Helvetica, Arial-Unicode, Arial, Sans-serif">from the Noun Project</text></svg>