<svg xmlns="http://www.w3.org/2000/svg" xmlns:xlink="http://www.w3.org/1999/xlink" version="1.1" x="0px" y="0px" viewBox="0 0 100 125" style="enable-background:new 0 0 100 100;" xml:space="preserve"><g><path d="M86,34.0000305c-2.2089844,0-4,1.7910156-4,4v24c0,4.4111328-3.5888672,8-8,8H36.7245483v-7.9672241L16,74.0000305   l20.7245483,11.9671631v-7.9671631H74c8.8222656,0,16-7.1777344,16-16v-24C90,35.7910461,88.2089844,34.0000305,86,34.0000305z"/><path d="M18,62.0000305v-24c0-4.4111328,3.5888672-8,8-8h37.2754517v7.9671631L84,26.0000305L63.2754517,14.0328064v7.9672241H26   c-8.8222656,0-16,7.1777344-16,16v24c0,2.2089844,1.7910156,4,4,4S18,64.2090149,18,62.0000305z"/></g><text x="0" y="115" fill="#000000" font-size="5px" font-weight="bold" font-family="'Helvetica Neue', Helvetica, Arial-Unicode, Arial, Sans-serif">Created by Brad Avison</text><text x="0" y="120" fill="#000000" font-size="5px" font-weight="bold" font-family="'Helvetica Neue', Helvetica, Arial-Unicode, Arial, Sans-serif">from the Noun Project</text></svg>