<svg xmlns="http://www.w3.org/2000/svg" viewBox="0 0 400 400"><defs><style>.a{fill:#b74334;}.b{fill:#fff;stroke:#000;stroke-miterlimit:10;stroke-width:7px;fill-rule:evenodd;}</style></defs><title>steps_2_make</title><path d="M362.6,0H37.4C16.78,0,0,17.53,0,39.06V360.94C0,382.48,16.78,400,37.4,400H362.6c20.62,0,37.4-17.52,37.4-39.06V39.06C400,17.53,383.22,0,362.6,0Zm19.62,360.94c0,11.3-8.8,20.49-19.62,20.49H37.4c-10.82,0-19.62-9.19-19.62-20.49V39.06c0-11.3,8.8-20.49,19.62-20.49H362.6c10.82,0,19.62,9.19,19.62,20.49Z" transform="translate(0)"/><path class="a" d="M94.3,104H49a6.82,6.82,0,0,0-6.67,7v43.43a6.82,6.82,0,0,0,6.67,7H94.3a6.81,6.81,0,0,0,6.66-7V111A6.81,6.81,0,0,0,94.3,104Zm-6.67,43.43h-32V118h32Z" transform="translate(0)"/><path d="M161.4,104H116.06a6.81,6.81,0,0,0-6.66,7v43.43a6.81,6.81,0,0,0,6.66,7H161.4a6.82,6.82,0,0,0,6.67-7V111A6.81,6.81,0,0,0,161.4,104Zm-6.66,43.43h-32V118h32Z" transform="translate(0)"/><path d="M228.52,104H183.17a6.81,6.81,0,0,0-6.66,7v43.43a6.81,6.81,0,0,0,6.66,7h45.35a6.81,6.81,0,0,0,6.66-7V111A6.81,6.81,0,0,0,228.52,104Zm-6.67,43.43h-32V118h32Z" transform="translate(0)"/><path d="M295.62,104H250.28a6.82,6.82,0,0,0-6.67,7v43.43a6.82,6.82,0,0,0,6.67,7h45.34a6.82,6.82,0,0,0,6.67-7V111A6.82,6.82,0,0,0,295.62,104ZM289,147.47H257V118h32Z" transform="translate(0)"/><path d="M94.3,170.2H49a6.82,6.82,0,0,0-6.67,7v43.43a6.82,6.82,0,0,0,6.67,7H94.3a6.82,6.82,0,0,0,6.66-7V177.16A6.81,6.81,0,0,0,94.3,170.2Zm-6.67,43.42h-32v-29.5h32Z" transform="translate(0)"/><path d="M161.4,170.2H116.06a6.81,6.81,0,0,0-6.66,7v43.43a6.82,6.82,0,0,0,6.66,7H161.4a6.82,6.82,0,0,0,6.67-7V177.16A6.81,6.81,0,0,0,161.4,170.2Zm-6.66,43.42h-32v-29.5h32Z" transform="translate(0)"/><path d="M228.52,170.2H183.17a6.81,6.81,0,0,0-6.66,7v43.43a6.82,6.82,0,0,0,6.66,7h45.35a6.82,6.82,0,0,0,6.66-7V177.16A6.81,6.81,0,0,0,228.52,170.2Zm-6.67,43.42h-32v-29.5h32Z" transform="translate(0)"/><path class="a" d="M295.62,170.2H250.28a6.82,6.82,0,0,0-6.67,7v43.43a6.82,6.82,0,0,0,6.67,7h45.34a6.82,6.82,0,0,0,6.67-7V177.16A6.82,6.82,0,0,0,295.62,170.2ZM289,213.62H257v-29.5h32Z" transform="translate(0)"/><path d="M94.3,236.35H49a6.82,6.82,0,0,0-6.67,7v43.43a6.82,6.82,0,0,0,6.67,7H94.3a6.81,6.81,0,0,0,6.66-7V243.32A6.82,6.82,0,0,0,94.3,236.35Zm-6.67,43.43h-32v-29.5h32Z" transform="translate(0)"/><path d="M161.4,236.35H116.06a6.82,6.82,0,0,0-6.66,7v43.43a6.81,6.81,0,0,0,6.66,7H161.4a6.82,6.82,0,0,0,6.67-7V243.32A6.82,6.82,0,0,0,161.4,236.35Zm-6.66,43.43h-32v-29.5h32Z" transform="translate(0)"/><path class="a" d="M228.52,236.35H183.17a6.82,6.82,0,0,0-6.66,7v43.43a6.81,6.81,0,0,0,6.66,7h45.35a6.81,6.81,0,0,0,6.66-7V243.32A6.82,6.82,0,0,0,228.52,236.35Zm-6.67,43.43h-32v-29.5h32Z" transform="translate(0)"/><path d="M295.62,236.35H250.28a6.82,6.82,0,0,0-6.67,7v43.43a6.82,6.82,0,0,0,6.67,7h45.34a6.82,6.82,0,0,0,6.67-7V243.32A6.83,6.83,0,0,0,295.62,236.35ZM289,279.78H257v-29.5h32Z" transform="translate(0)"/><path d="M94.3,302.51H49a6.82,6.82,0,0,0-6.67,7V352.9a6.82,6.82,0,0,0,6.67,7H94.3a6.81,6.81,0,0,0,6.66-7V309.47A6.81,6.81,0,0,0,94.3,302.51Zm-6.67,43.43h-32V316.43h32Z" transform="translate(0)"/><path class="a" d="M161.4,302.51H116.06a6.81,6.81,0,0,0-6.66,7V352.9a6.81,6.81,0,0,0,6.66,7H161.4a6.82,6.82,0,0,0,6.67-7V309.47A6.81,6.81,0,0,0,161.4,302.51Zm-6.66,43.43h-32V316.43h32Z" transform="translate(0)"/><path d="M228.52,302.51H183.17a6.81,6.81,0,0,0-6.66,7V352.9a6.81,6.81,0,0,0,6.66,7h45.35a6.81,6.81,0,0,0,6.66-7V309.47A6.81,6.81,0,0,0,228.52,302.51Zm-6.67,43.43h-32V316.43h32Z" transform="translate(0)"/><path d="M295.62,302.51H250.28a6.82,6.82,0,0,0-6.67,7V352.9a6.82,6.82,0,0,0,6.67,7h45.34a6.82,6.82,0,0,0,6.67-7V309.47A6.82,6.82,0,0,0,295.62,302.51ZM289,345.94H257V316.43h32Z" transform="translate(0)"/><path d="M289.68,40.14H54.91c-7,0-12.62,5.91-12.62,13.17V80c0,7.26,5.66,13.17,12.62,13.17H289.68c6.95,0,12.61-5.91,12.61-13.17V53.31C302.29,46.05,296.63,40.14,289.68,40.14ZM289,79.21H55.62V54.06H289Z" transform="translate(0)"/><path d="M342.16,108.12c-13,0-23.56,11-23.56,24.6s10.56,24.6,23.56,24.6,23.55-11,23.55-24.6S355.15,108.12,342.16,108.12Zm0,37.13a12.55,12.55,0,1,1,12-12.53A12.28,12.28,0,0,1,342.16,145.25Z" transform="translate(0)"/><path d="M342.16,174.27c-13,0-23.56,11-23.56,24.6s10.56,24.6,23.56,24.6,23.55-11,23.55-24.6S355.15,174.27,342.16,174.27Zm0,37.13a12.54,12.54,0,1,1,12-12.53A12.28,12.28,0,0,1,342.16,211.4Z" transform="translate(0)"/><path d="M342.16,240.43c-13,0-23.56,11-23.56,24.6s10.56,24.6,23.56,24.6,23.55-11,23.55-24.6S355.15,240.43,342.16,240.43Zm0,37.13a12.54,12.54,0,1,1,12-12.53A12.28,12.28,0,0,1,342.16,277.56Z" transform="translate(0)"/><path d="M342.16,306.58c-13,0-23.56,11-23.56,24.6s10.56,24.6,23.56,24.6,23.55-11,23.55-24.6S355.15,306.58,342.16,306.58Zm0,37.14a12.55,12.55,0,1,1,12-12.54A12.29,12.29,0,0,1,342.16,343.72Z" transform="translate(0)"/><rect class="a" x="49" y="103.92" width="39" height="43.86"/><rect class="a" x="185" y="240.73" width="44" height="45.95"/><rect class="a" x="252" y="173.89" width="40" height="41.77"/><rect class="a" x="119" y="306.52" width="42" height="43.86"/><polygon class="b" points="256.11 300.01 277.11 321 267 331.1 246.01 310.1 232.49 335.01 208 262 281 286.48 256.11 300.01"/></svg>