<svg xmlns="http://www.w3.org/2000/svg" viewBox="0 0 400.02 397.65"><defs><style>.a{fill:#b74334;fill-rule:evenodd;}</style></defs><title>steps_3_use</title><path d="M365.52,296V109.79c0-13.79,0-13.79-13.8-13.79H48.26c-13.8,0-13.8,0-13.8,13.79V296L0,371.88c0,27.59,0,27.59,13.79,27.59H386.21c13.79,0,13.79,0,13.79-27.59ZM62.05,123.59H337.93V289.11H62.05Zm82.76,248.29,6.9-27.59h96.56l6.89,27.59Z" transform="translate(0.02 -1.82)"/><path class="a" d="M139.22,136.93a23.19,23.19,0,0,0-32.84,32.74l82.16,82a15.51,15.51,0,0,0,21.91,0l82.16-82a23.18,23.18,0,0,0-32.83-32.74L222.5,174.12V25a23.22,23.22,0,0,0-46.43,0V173.7Z" transform="translate(0.02 -1.82)"/></svg>