<svg xmlns="http://www.w3.org/2000/svg" viewBox="0 0 400 400"><defs><style>.a{fill:#fff;}.b{fill:#b74334;fill-rule:evenodd;}</style></defs><title>steps_1_explore</title><path d="M5.19,114.29h103.9a5.2,5.2,0,0,0,5.2-5.2V5.19A5.2,5.2,0,0,0,109.09,0H5.19A5.2,5.2,0,0,0,0,5.19v103.9A5.2,5.2,0,0,0,5.19,114.29Z"/><path d="M148.05,114.29H252a5.19,5.19,0,0,0,5.19-5.2V5.19A5.19,5.19,0,0,0,252,0H148.05a5.19,5.19,0,0,0-5.19,5.19v103.9A5.19,5.19,0,0,0,148.05,114.29Z"/><path d="M394.81,0H290.91a5.2,5.2,0,0,0-5.2,5.19v103.9a5.2,5.2,0,0,0,5.2,5.2h103.9a5.2,5.2,0,0,0,5.19-5.2V5.19A5.2,5.2,0,0,0,394.81,0Z"/><path d="M5.19,257.14h103.9a5.19,5.19,0,0,0,5.2-5.19V148.05a5.19,5.19,0,0,0-5.2-5.19H5.19A5.19,5.19,0,0,0,0,148.05V252A5.19,5.19,0,0,0,5.19,257.14Z"/><path d="M148.05,257.14H252a5.19,5.19,0,0,0,5.19-5.19V148.05a5.19,5.19,0,0,0-5.19-5.19H148.05a5.19,5.19,0,0,0-5.19,5.19V252A5.19,5.19,0,0,0,148.05,257.14Z"/><path d="M394.81,142.86H290.91a5.19,5.19,0,0,0-5.2,5.19V252a5.19,5.19,0,0,0,5.2,5.19h103.9A5.19,5.19,0,0,0,400,252V148.05A5.19,5.19,0,0,0,394.81,142.86Z"/><path d="M5.19,400h103.9a5.2,5.2,0,0,0,5.2-5.19V290.91a5.2,5.2,0,0,0-5.2-5.2H5.19A5.2,5.2,0,0,0,0,290.91v103.9A5.2,5.2,0,0,0,5.19,400Z"/><path d="M148.05,400H252a5.19,5.19,0,0,0,5.19-5.19V290.91a5.19,5.19,0,0,0-5.19-5.2H148.05a5.19,5.19,0,0,0-5.19,5.2v103.9A5.19,5.19,0,0,0,148.05,400Z"/><path d="M394.81,285.71H290.91a5.2,5.2,0,0,0-5.2,5.2v103.9a5.2,5.2,0,0,0,5.2,5.19h103.9a5.2,5.2,0,0,0,5.19-5.19V290.91A5.2,5.2,0,0,0,394.81,285.71Z"/><path class="a" d="M185.23,219.43a3.8,3.8,0,0,1-3.8-3.79V185.3a3.8,3.8,0,1,1,7.59,0v30.34A3.79,3.79,0,0,1,185.23,219.43Z"/><path class="a" d="M245.91,219.43a3.8,3.8,0,0,1-3.8-3.79V185.3a3.8,3.8,0,1,1,7.59,0v30.34A3.79,3.79,0,0,1,245.91,219.43Z"/><path class="a" d="M230.74,234.6a3.8,3.8,0,0,1-3.8-3.79V170.13a3.8,3.8,0,1,1,7.59,0v60.68A3.79,3.79,0,0,1,230.74,234.6Z"/><path class="a" d="M215.57,249.77a3.8,3.8,0,0,1-3.8-3.8V155a3.8,3.8,0,1,1,7.59,0v91A3.8,3.8,0,0,1,215.57,249.77Z"/><path class="a" d="M200.4,234.6a3.8,3.8,0,0,1-3.8-3.79V170.13a3.8,3.8,0,1,1,7.59,0v60.68A3.79,3.79,0,0,1,200.4,234.6Z"/><path class="a" d="M170.06,234.6a3.8,3.8,0,0,1-3.8-3.79V170.13a3.8,3.8,0,1,1,7.59,0v60.68A3.79,3.79,0,0,1,170.06,234.6Z"/><path class="a" d="M154.89,219.43a3.8,3.8,0,0,1-3.8-3.79V185.3a3.8,3.8,0,1,1,7.59,0v30.34A3.79,3.79,0,0,1,154.89,219.43Z"/><path class="b" d="M220.76,307.15a91.33,91.33,0,1,1,79.08-45.54L362,323.77A33.23,33.23,0,0,1,328.77,357l-62.16-62.16A91,91,0,0,1,220.76,307.15Zm0-149.54a58.16,58.16,0,1,0,58.16,58.15A58.16,58.16,0,0,0,220.76,157.61Z"/></svg>